{"accessors":[{"bufferView":0,"componentType":5126,"count":48,"max":[1,0,1,0,0.9999043941497803,0,1,0,0,-1,0,0,14.28530216217041,17.078670501708984,28.804901123046875,1],"min":[-0.9923179149627686,0,-0.9999043941497803,0,-1,0,-0.9923179149627686,0,0,-1.0000001192092896,0,0,-52.80326461791992,-22.128896713256836,-41.19813919067383,1],"type":"MAT4","byteOffset":0}],"asset":{"generator":"Khronos Blender glTF 2.0 exporter","version":"2.0"},"bufferViews":[{"buffer":0,"byteLength":3072,"byteOffset":0},{"buffer":0,"byteOffset":3072,"byteLength":3083},{"buffer":0,"byteOffset":6155,"byteLength":117029},{"buffer":0,"byteOffset":123184,"byteLength":2155},{"buffer":0,"byteOffset":125339,"byteLength":3741}],"buffers":[{"byteLength":129080,"uri":"data:application/octet-stream;base64,"}],"images":[{"name":"pm0025_00_BodyA1","uri":"data:application/octet-stream;base64,"},{"name":"pm0025_00_BodyB1","uri":"data:application/octet-stream;base64,"},{"name":"pm0025_00_Mouth1","uri":"data:application/octet-stream;base64,"},{"name":"pm0025_00_Eye1","uri":"data:application/octet-stream;base64,"}],"materials":[{"alphaMode":"OPAQUE","name":"Material__160","pbrMetallicRoughness":{"baseColorFactor":[0.6400000190734865,0.6400000190734865,0.6400000190734865,1],"baseColorTexture":{"index":0},"metallicFactor":0}},{"alphaMode":"OPAQUE","name":"Material__161","pbrMetallicRoughness":{"baseColorFactor":[0.6400000190734865,0.6400000190734865,0.6400000190734865,1],"baseColorTexture":{"index":1},"metallicFactor":0}},{"alphaMode":"OPAQUE","name":"Material__162","pbrMetallicRoughness":{"baseColorFactor":[0.6400000190734865,0.6400000190734865,0.6400000190734865,1],"baseColorTexture":{"index":2},"metallicFactor":0}},{"alphaMode":"OPAQUE","name":"Material__163","pbrMetallicRoughness":{"baseColorFactor":[0.6400000190734865,0.6400000190734865,0.6400000190734865,1],"baseColorTexture":{"index":3},"metallicFactor":0}}],"meshes":[{"name":"PikachuF","primitives":[{"material":2,"extensions":{"ALI_amc_mesh_compression":{"bufferView":1}}},{"material":0,"extensions":{"ALI_amc_mesh_compression":{"bufferView":2}}},{"material":3,"extensions":{"ALI_amc_mesh_compression":{"bufferView":3}}},{"material":1,"extensions":{"ALI_amc_mesh_compression":{"bufferView":4}}}]}],"nodes":[{"children":[3,4],"name":"Armature","scale":[0.02539999969303608,0.02539999969303608,0.02539999969303608]},{"name":"Camera","rotation":[0.483536034822464,0.33687159419059753,-0.20870360732078552,0.7804827094078064],"translation":[7.481131553649902,5.34366512298584,6.5076398849487305]},{"name":"Lamp","rotation":[0.16907575726509094,0.7558802962303162,-0.27217137813568115,0.570947527885437],"scale":[1,1,0.9999999403953552],"translation":[4.076245307922363,5.903861999511719,-1.0054539442062378]},{"mesh":0,"name":"PikachuF","skin":0},{"children":[5,49,51],"name":"Armature_pm0025_00_pikachu","rotation":[-0.7071068286895752,0,0,0.7071068286895752]},{"children":[6],"name":"Armature_Origin"},{"children":[7,29],"name":"Armature_Waist","rotation":[0,-0.7369529008865356,0,0.6759440898895264],"translation":[0,-0.26272261142730713,14.285300254821777]},{"children":[8],"name":"Armature_Spine1","rotation":[0,5.960464477539062e-7,0,1],"translation":[0.00002582847446319647,0.000015169382095336914,-0.000012490452718338929]},{"children":[9,19,24],"name":"Armature_Spine2","rotation":[0,-0.07636699825525284,0,0.9970798492431641],"translation":[5.5101094245910645,-0.47851648926734924,-0.47671788930892944]},{"children":[10,11,15],"name":"Armature_Head","rotation":[0,0.23737496137619019,0,0.9714180827140808],"translation":[8.336919784545898,-2.0925405025482178,-2.0329830646514893]},{"name":"Armature_EndHead","rotation":[0,-7.450580596923828e-9,0,1],"translation":[14.539139747619629,3.6653099060058594,3.560133934020996]},{"children":[12],"name":"Armature_LEar1","rotation":[0,0.4597923159599304,0,0.8880264759063721],"translation":[12.881840705871582,2.309514284133911,-3.2716054916381836]},{"children":[13],"name":"Armature_LEar2","rotation":[0,-5.960464477539063e-8,0,1],"translation":[4.5751495361328125,1.8198387622833252,2.0486738681793213]},{"children":[14],"name":"Armature_LEar3","rotation":[0,1.7881393432617188e-7,0,1],"translation":[4.376980781555176,1.741011381149292,1.9599461555480957]},{"name":"Armature_EndLEar3","rotation":[0,1.4901161193847656e-8,0,1],"translation":[4.769891738891602,1.8973004817962646,2.135878086090088]},{"children":[16],"name":"Armature_REar1","rotation":[0,-0.35563337802886963,0,0.9346255660057068],"translation":[9.912779808044434,2.3095219135284424,8.853315353393555]},{"children":[17],"name":"Armature_REar2","rotation":[0,-1.4901162614933128e-7,0,1],"scale":[0.9999999403953552,1,0.9999999403953552],"translation":[4.806976318359375,1.8198394775390625,1.4219789505004883]},{"children":[18],"name":"Armature_REar3","rotation":[0,1.1920930376163597e-7,0,1],"scale":[0.9999999403953552,1,0.9999999403953552],"translation":[4.5987958908081055,1.7409945726394653,1.3602933883666992]},{"name":"Armature_EndREar3","translation":[5.0115485191345215,1.8973114490509033,1.4825506210327148]},{"children":[20],"name":"Armature_LShoulder","rotation":[0,0.37000036239624023,0,0.9290316700935364],"translation":[1.894959807395935,-2.071343183517456,-4.101756572723389]},{"children":[21],"name":"Armature_LArm","rotation":[0,-0.2498297393321991,0,0.9682897925376892],"translation":[2.3313679695129395,-3.77724027633667,-2.5491995811462402]},{"children":[22],"name":"Armature_LForeArm","rotation":[0,-1.769513069405093e-8,0,1],"scale":[0.9999999403953552,1,0.9999999403953552],"translation":[1.624779224395752,-4.2798991203308105,-2.9060230255126953]},{"children":[23],"name":"Armature_LHand","rotation":[0,-0.11058152467012405,0,0.9938671588897705],"translation":[1.3401015996932983,-3.5299911499023438,-2.396822452545166]},{"name":"Armature_EndLHand","rotation":[0,-7.450580596923828e-9,0,1],"translation":[0.5923049449920654,-2.6789236068725586,-1.9980297088623047]},{"children":[25],"name":"Armature_RShoulder","rotation":[0,-0.8247875571250916,0,0.5654428601264954],"translation":[3.570478677749634,-2.071359872817993,2.769009828567505]},{"children":[26],"name":"Armature_RArm","rotation":[0,0.1641351282596588,0,0.9864378571510315],"scale":[0.9999999403953552,1,0.9999999403953552],"translation":[2.331413745880127,-3.777285575866699,-2.5491740703582764]},{"children":[27],"name":"Armature_RForeArm","rotation":[0,1.1920928955078125e-7,0,1],"translation":[2.3802666664123535,-4.279813766479492,-2.3278255462646484]},{"children":[28],"name":"Armature_RHand","rotation":[0,0.0770481750369072,0,0.9970273971557617],"scale":[0.9999999403953552,1,0.9999999403953552],"translation":[1.9632668495178223,-3.53009033203125,-1.9199888706207275]},{"name":"Armature_EndRHand","rotation":[0,-3.725290298461914e-9,0,1],"translation":[1.696016550064087,-2.678898811340332,-1.2109168767929077]},{"children":[30,34,40,46,48],"name":"Armature_Hips","rotation":[0,-0.9990692734718323,0,0.04313414543867111],"translation":[0.0000016239096112258267,0.000004023313522338867,-0.000003514368245305377]},{"children":[31],"name":"Armature_Tail1","rotation":[0,-0.8204714059829712,0,0.5716875791549683],"scale":[0.9999999403953552,1,0.9999999403953552],"translation":[3.916797637939453,9.021053314208984,-0.000014408578863367438]},{"children":[32],"name":"Armature_Tail2","rotation":[0,-0.3878917396068573,0,0.9217050671577454],"translation":[0.6603734493255615,5.164069175720215,1.7886192798614502]},{"children":[33],"name":"Armature_Tail3","rotation":[0,-0.12157484143972397,0,0.9925822615623474],"translation":[10.704312324523926,5.242280960083008,4.785739421844482]},{"name":"Armature_EndTail3","translation":[16.34441375732422,2.9642105102539062,2.918067693710327]},{"children":[35],"name":"Armature_RThigh","rotation":[0,-0.424633264541626,0,0.9053654670715332],"translation":[3.2003512382507324,1.9786248207092285,-6.393039226531982]},{"children":[36],"name":"Armature_RLeg","rotation":[0,0.6831592321395874,0,0.7302694320678711],"scale":[0.9999999403953552,1,0.9999999403953552],"translation":[1.7356390953063965,-4.696647644042969,-3.76715087890625]},{"children":[37,39],"name":"Armature_RFoot","rotation":[0,-0.8907167911529541,0,0.45455870032310486],"scale":[1.0000001192092896,1,1.0000001192092896],"translation":[3.8279194831848145,3.7817509174346924,3.8416943550109863]},{"children":[38],"name":"Armature_RToe","rotation":[0,-7.61247065383941e-9,0,1],"translation":[-1.1093195676803589,-4.850771903991699,-1.0643935203552246]},{"name":"Armature_EndRToe","translation":[-0.7295498251914978,-3.190061092376709,0.000001991000317502767]},{"name":"Armature_EndRFoot","rotation":[0,1.7350885173073038e-9,0,1],"translation":[-1.8221514225006104,-7.967750549316406,0.000007402421033475548]},{"children":[41],"name":"Armature_LThigh","rotation":[0,-0.42463237047195435,0,0.9053658843040466],"translation":[3.2004218101501465,1.9786078929901123,6.393012523651123]},{"children":[42],"name":"Armature_LLeg","rotation":[0,0.6831594109535217,0,0.7302693128585815],"translation":[3.3873462677001953,-4.696619987487793,-2.393688201904297]},{"children":[43,44],"name":"Armature_LFoot","rotation":[0,-0.890716552734375,0,0.4545591473579407],"scale":[1,0.9999999403953552,1],"translation":[4.8428053855896,3.78173565864563,2.4410526752471924]},{"name":"Armature_EndLFoot","rotation":[0,-2.6980160328093916e-9,0,1],"translation":[1.8221310377120972,-7.967755317687988,-1.8330320017412305e-7]},{"children":[45],"name":"Armature_LToe","rotation":[0,-1.1604925020947121e-8,0,1],"translation":[1.10934579372406,-4.850867748260498,-1.0643978118896484]},{"name":"Armature_EndLToe","translation":[0.7295311093330383,-3.190065860748291,-3.0380761018022895e-8]},{"children":[47],"name":"Armature_Feeler","rotation":[0,-5.071356099506374e-7,0,1],"translation":[4.056099891662598,0.0286349356174469,-0.00002020812280534301]},{"name":"Armature_EndFeeler","translation":[7.68720006942749,-0.000046119093894958496,-0.00004609573807101697]},{"name":"Armature_EndHips","rotation":[0,-3.0298451747512445e-8,0,1],"translation":[13.276800155639648,-0.00004836916923522949,-0.00006614708399865776]},{"children":[50],"name":"Armature_VriVis01"},{"name":"Armature_pm0025_01_SippoSkin"},{"name":"Armature_pm0025_00_BodySkin"}],"samplers":[{}],"scene":0,"scenes":[{"name":"Scene","nodes":[0,2,1]}],"skins":[{"inverseBindMatrices":0,"joints":[4,5,6,7,8,9,10,11,12,13,14,15,16,17,18,19,20,21,22,23,24,25,26,27,28,29,30,31,32,33,34,35,36,37,38,39,40,41,42,43,44,45,46,47,48,49,50,51],"skeleton":0}],"textures":[{"sampler":0,"source":0},{"sampler":0,"source":1},{"sampler":0,"source":2},{"sampler":0,"source":3}],"extensionsUsed":["ALI_amc_mesh_compression"],"extensionsRequired":["ALI_amc_mesh_compression"]}